<svg xmlns="http://www.w3.org/2000/svg" viewBox="0 0 136.42 101.49"><defs><style>.cls-1{isolation:isolate;}.cls-10,.cls-2,.cls-3,.cls-8{fill:none;}.cls-2{stroke:#3c314f;}.cls-2,.cls-3,.cls-8{stroke-linecap:round;stroke-linejoin:round;}.cls-2,.cls-3{stroke-width:2px;}.cls-10,.cls-3,.cls-5,.cls-8{stroke:#fff;}.cls-4,.cls-5,.cls-6,.cls-7,.cls-9{fill:#fff;}.cls-10,.cls-4,.cls-5,.cls-8,.cls-9{fill-rule:evenodd;}.cls-10,.cls-5{stroke-miterlimit:10;}.cls-7,.cls-9{opacity:0.39;mix-blend-mode:multiply;}.cls-8{stroke-width:3px;}</style></defs><g class="cls-1"><g id="Layer_2" data-name="Layer 2"><g id="Layer_1-2" data-name="Layer 1"><path class="cls-2" d="M131.38,51.5l2.63-.07a1.36,1.36,0,0,1,1.41,1.38l0,3.11a1.35,1.35,0,0,1-.55,1.08l-2.54,1.9a1.37,1.37,0,0,1-2.19-1.08l0-4.93A1.37,1.37,0,0,1,131.38,51.5Z"/><path class="cls-3" d="M131.38,51.5l2.63-.07a1.36,1.36,0,0,1,1.41,1.38l0,3.11a1.35,1.35,0,0,1-.55,1.08l-2.54,1.9a1.37,1.37,0,0,1-2.19-1.08l0-4.93A1.37,1.37,0,0,1,131.38,51.5Z"/><path class="cls-4" d="M99.82,69l16.67,9a5.11,5.11,0,0,1,2.68,4.5h0a5.12,5.12,0,0,1-5.12,5.12H86a5.12,5.12,0,0,1-4.09-2l-1.19-1.57a5.12,5.12,0,0,1,1.47-7.5l12.61-7.47A5.11,5.11,0,0,1,99.82,69Z"/><path class="cls-5" d="M117.16,40.71S111,35,107,36s-21.78,2.48-22.77,2.48-9.65,0-13.86-.5S63,47.89,64.44,50.18l22.28-1.79Z"/><path class="cls-6" d="M128.87,52.27l1.64-1.35a1,1,0,0,1,.64-.25h.39a1.06,1.06,0,0,1,1.09,1l.14,8.25A3.63,3.63,0,0,1,129,63.63h0s-.33-3.86-.34-4.15l-.19-6.36A1.08,1.08,0,0,1,128.87,52.27Z"/><path class="cls-6" d="M28.07,39.53l-.88-1.93a1,1,0,0,0-.47-.51l-.34-.18a1.07,1.07,0,0,0-1.44.46L21.2,44.73A3.61,3.61,0,0,0,23,49.67h0s2-3.32,2.12-3.57l3-5.64A1.08,1.08,0,0,0,28.07,39.53Z"/><path class="cls-4" d="M125.35,51.86,135.7,75h0a2.26,2.26,0,0,1-2.95-.84L119.39,53.58Z"/><path class="cls-6" d="M123.52,46.38c2.76,0,1.6,0,5.23,0a1.6,1.6,0,0,1,1.6,1.55l.34,11.89a1.59,1.59,0,0,1-2.57,1.3l-5.9-12.22A1.6,1.6,0,0,1,123.52,46.38Z"/><path class="cls-4" d="M22.93,68.22A17.13,17.13,0,1,1,1,78.58,17.16,17.16,0,0,1,22.93,68.22ZM13.41,94.86A11.16,11.16,0,1,0,6.64,80.59,11.17,11.17,0,0,0,13.41,94.86Z"/><path class="cls-4" d="M18.57,80.42a4.17,4.17,0,1,1-5.34,2.52A4.18,4.18,0,0,1,18.57,80.42Z"/><rect class="cls-6" x="17.88" y="73.6" width="3.89" height="11.51" transform="translate(39.64 0) rotate(28.05)"/><rect class="cls-6" x="23.58" y="58.95" width="5.58" height="16.29" transform="translate(34.64 -4.52) rotate(28.05)"/><path class="cls-4" d="M113.27,67.24A17.13,17.13,0,1,1,96.94,85.16,17.14,17.14,0,0,1,113.27,67.24Zm1.34,28.25a11.16,11.16,0,1,0-11.69-10.61A11.17,11.17,0,0,0,114.61,95.49Z"/><path class="cls-4" d="M113.89,80.18a4.17,4.17,0,1,1-4,4.37A4.18,4.18,0,0,1,113.89,80.18Z"/><rect class="cls-6" x="90.65" y="72.99" width="8.19" height="11.28" rx="2.77" transform="translate(189.49 157.27) rotate(-180)"/><path class="cls-7" d="M16.67,57.9c2.16,2.89,4.93,5.88,5.8,7.24.29.44,1.09,1.88,2.15,3.91,1.46,2.77,3.44,6.66,5.35,10.61.39.33.75.62,1.07.9a8,8,0,0,0,5.18,1.92h6.67l.69-7,.51-5.11L28.71,56.68Z"/><path class="cls-6" d="M42.89,82.48H36.21A8,8,0,0,1,31,80.56c-4-3.41-13.27-10.34-24.91-12.41a.84.84,0,0,1-.59-1.23L7.4,63.63A11.22,11.22,0,0,1,16,58l12.67-1.29L44.09,70.35Z"/><path class="cls-8" d="M100.58,82.79l-3.8,3.79A8.14,8.14,0,0,1,91,89H84.44a8.18,8.18,0,0,1-7.85-5.89l-.51-1.79"/><path class="cls-4" d="M37.74,24.27l9.41,4.37s-1.33,2.67-2.79,6.53a57.53,57.53,0,0,0-3.71,15c-.48,6.5,2.46,14.81,4.54,19.77a7,7,0,0,0,4.2,3.92,6.91,6.91,0,0,0,2.28.39H65.25a7,7,0,0,0,7-7.42c-.19-3.8-1.14-8.08-4.14-10.26V53.66c6.13-.53,12.27-1.07,18.39-1.78,4-.47,8-1.22,12-2V67.67L96.8,70.61,90.34,81.39A5.52,5.52,0,0,1,85.63,84H47a6.88,6.88,0,0,1-4.44-.87,16.56,16.56,0,0,1-5.94-5.64c-2.76-4-17.94-20.75-17.94-20.75C21.45,51,37.74,24.27,37.74,24.27Z"/><path class="cls-4" d="M36.59,77.53C42,85.32,47,84.05,47,84.05H85.63a5.5,5.5,0,0,0,4.71-2.66L96.8,70.61H71.38a7,7,0,0,1-6.13,3.6H51.67a6.91,6.91,0,0,1-2.28-.39Z"/><path class="cls-4" d="M37.43,77.55a148,148,0,0,0,42.31,4.79c11.2-.32,9.87,3.57,9.87,3.57s-26.59.55-37.17,0c-7.33-.39-12.43-2.56-16.25-7.86Z"/><path class="cls-9" d="M62.25,77.71c3.78.05,25.59.37,28.12,0,2.12-.33,27.27-18,37.49-25.33a2.62,2.62,0,0,0,.39-3.92,1.31,1.31,0,0,0-.11-.12c-1-1.09-2-2.16-3.11-3.23-3.56,2.14-7.09,4.35-10.69,6.33C101,58.76,87.4,65.57,73.71,72.2,69.9,74.05,66.07,75.88,62.25,77.71Z"/><path class="cls-4" d="M64.73,70.33,69,60a18.74,18.74,0,0,1-4.56-9.81l53.67-10.36a2.63,2.63,0,0,1,2.34.72c2.61,2.58,5.23,5.14,7.68,7.77l.12.13a2.61,2.61,0,0,1-.39,3.91c-10.22,7.34-35.37,25-37.49,25.34-2.77.42-28.68,0-28.68,0Z"/><path class="cls-6" d="M64.44,50.18A18.9,18.9,0,0,0,69,60h0l38.26-18Z"/><path class="cls-4" d="M29.6,22.35a2.18,2.18,0,0,0,.63.18l8.36-.11-.3.66-.55,1.19,1.84.9L47,28.82l3.43-7.21,1.06-2.22.23-.49a2.41,2.41,0,0,0-.14-2.34,2.31,2.31,0,0,0-.57-.64l-4.45-3.43a2.52,2.52,0,0,1-.74-.94L44.33,8.17A2.44,2.44,0,0,0,42.1,6.73H39.23a13.08,13.08,0,0,0-6.51,4.44,22.33,22.33,0,0,0-2.9,4.5,24.63,24.63,0,0,0-1.45,3.45A2.45,2.45,0,0,0,29.6,22.35Z"/><path class="cls-4" d="M51.46,5c0,2.76,1,5,2.27,5S56,7.75,56,5s-1-5-2.27-5S51.46,2.24,51.46,5Z"/><path class="cls-10" d="M53.73,5s-3.46-.28-4.64,2.19-4.48,10.07-4.48,10.07"/><path class="cls-4" d="M41.43,38.73H43a1.85,1.85,0,0,0,1.86-1.85h0A1.86,1.86,0,0,0,43,35h-.46Z"/><path class="cls-4" d="M47.46,16.31a2,2,0,0,1,2.89.05l2.85,2.8A2,2,0,1,1,50.27,22l-2.86-2.81A2,2,0,0,1,47.46,16.31Z"/></g></g></g></svg>