<svg xmlns="http://www.w3.org/2000/svg" viewBox="0 0 149.67 100.51"><defs><style>.cls-1{fill:#fff;}.cls-2,.cls-3,.cls-4,.cls-5{fill:none;stroke:#fff;stroke-miterlimit:10;}.cls-2{stroke-width:4px;}.cls-4{stroke-width:3px;}.cls-5{stroke-linecap:round;stroke-width:5px;}</style></defs><g id="Layer_2" data-name="Layer 2"><g id="Layer_1-2" data-name="Layer 1"><polygon class="cls-1" points="16.74 14.97 149.67 14.97 149.67 0 38.56 0 16.74 9.64 16.74 14.97"/><path class="cls-2" d="M29.17,15,10.91,43.14V58.71s30.25.59,30.25,25l52.07-.14a20.76,20.76,0,0,1,5.08-11.8c1.21-1.35,5.9-6.44,13.54-6.65a19,19,0,0,1,13.51,5.51,20.25,20.25,0,0,1,5.93,12.83l12.43.11q-.1-34.31-.19-68.62Z"/><line class="cls-3" x1="71.8" y1="18.52" x2="71.8" y2="82.45"/><path class="cls-1" d="M143.53,60.13l-71.6.06Q71.68,72,71.41,83.73H93.29a18.64,18.64,0,0,1,17.32-16.6c9.77-.42,18.71,7.64,19.06,18.17h13.86Z"/><path class="cls-4" d="M143.53,45.92,98,46a11.7,11.7,0,0,0-5.91,6.38,11.48,11.48,0,0,0,0,7.8l51.44-.06Z"/><path class="cls-4" d="M143.53,26h-5.71s-6.22,2.41-6.22,6.22v13.7h11.93Z"/><path class="cls-1" d="M71.8,54.48l-11.75-.06L52.19,65.07H32.09s8.66,6,9.52,18.71l30.57-.25Q72,69,71.8,54.48Z"/><circle class="cls-1" cx="15.21" cy="79.87" r="15.21"/><circle class="cls-1" cx="111.93" cy="85.3" r="15.21"/><path class="cls-5" d="M25,61.77,12.49,84"/><path class="cls-2" d="M25.5,60.19,34,42.94l9.14-.13"/></g></g></svg>