<svg xmlns="http://www.w3.org/2000/svg" viewBox="0 0 169.67 105.52"><defs><style>.cls-1,.cls-4{fill:#fff;}.cls-2{fill:#1b1c20;}.cls-3{fill:#3e4057;}.cls-4{stroke:#fff;stroke-miterlimit:10;stroke-width:2px;}.cls-5{fill:#f2f2f2;}</style></defs><g id="Layer_2" data-name="Layer 2"><g id="Layer_1-2" data-name="Layer 1"><path class="cls-1" d="M15.05,73.8A14.78,14.78,0,1,0,29.83,88.58,14.78,14.78,0,0,0,15.05,73.8Zm0,22.77a8,8,0,1,1,8-8A8,8,0,0,1,15.05,96.57Z"/><path class="cls-2" d="M36.1,45.81,45,47.42a1.16,1.16,0,0,0,1.35-.93l0-.12A1.15,1.15,0,0,0,45.38,45L36.54,43.4Z"/><path class="cls-1" d="M28,85.14c.25,1.37,1.48,1.88,2.88,1.88h2.81c0,.47,0,1,0,1.43l-.13.13H29.44a2.78,2.78,0,0,1-2.75-2.25c-1-5.61-5.77-9-11.65-9H0V75.71H15.77C21.92,75.71,26.89,79.25,28,85.14Z"/><path class="cls-2" d="M105.86,62.53h45V55.8h-45a2.65,2.65,0,0,0-2.64,2.65v1.44A2.64,2.64,0,0,0,105.86,62.53Z"/><rect class="cls-3" x="56.29" y="65.04" width="18.46" height="20.44"/><path d="M55.6,86.18H75.44V64.35H55.6Zm18.45-1.39H57V65.74H74.05Z"/><rect class="cls-2" x="56.29" y="69.69" width="18.46" height="1.48"/><path class="cls-2" d="M70.13,60.89l2.23-17.18a2.05,2.05,0,0,1,2-1.84h1.19a2.26,2.26,0,0,1,2.15,2.61l-3,23.25H53.88a1.16,1.16,0,0,1-1.13-1.2V63.6a.94.94,0,0,1,.91-1H68.24A2,2,0,0,0,70.13,60.89Z"/><path class="cls-4" d="M65.42,14.34a1.46,1.46,0,0,1,.46.7l0,2.77V61H78.59q0-25.71-.1-51.4c.18-1.87.13-4.68-1.64-6.47-1.56-1.57-3.89-1.82-12.47-1C61.19,2.5,57,3,52.1,3.73a50.24,50.24,0,0,0-11,7.07A22.31,22.31,0,0,0,39.38,13a1.72,1.72,0,0,0-.17.39,2.94,2.94,0,0,0-.07.71v.45h3l22-.53A1.54,1.54,0,0,1,65.42,14.34Z"/><path class="cls-4" d="M65.21,61.7H79.29l-.1-52.1c.29-3-.33-5.41-1.85-6.95-1.78-1.8-4.33-2-13-1.16-4.09.41-8.24.93-12.33,1.56l-.19.06a50.92,50.92,0,0,0-5.18,2.83,49.23,49.23,0,0,0-5.91,4.33l-.08.07a22.17,22.17,0,0,0-1.85,2.34,2.53,2.53,0,0,0-.25.59,4.49,4.49,0,0,0-.08.86v1.14h3.66l22.18-.54a.86.86,0,0,1,.69.15h0a.82.82,0,0,1,.21.28l0,2.66ZM77.9,60.31H66.59V17.81l0-3a2.06,2.06,0,0,0-.68-1h0a2.19,2.19,0,0,0-1.79-.45l-22,.52H39.84a2.19,2.19,0,0,1,0-.3h0s0-.09.1-.19a20.39,20.39,0,0,1,1.66-2.1A50.25,50.25,0,0,1,52.3,4.4c4-.61,8.13-1.13,12.15-1.53,8.62-.86,10.61-.55,11.9.75s1.71,3.23,1.45,5.92Z"/><path class="cls-4" d="M20.87,44.9h8.69a3,3,0,0,0,2.88-2.15l8.37-28.63-1.15-1.51a12.86,12.86,0,0,1,1.13-1.4,13.31,13.31,0,0,1,2.26-2l3.08.08-6.92,38.6a15.68,15.68,0,0,0,0,4.93l3.52,21.6a9.25,9.25,0,0,0,9.13,7.74l14-.13,0-35L168,47.09l0,11.53-6.37,0L144.41,68.71l-5.86,4.44a30.72,30.72,0,0,0-9.1-5.12c-13-4.61-26.4,1.09-39.82,6.82-5.48,2.33-13.62,6.84-13.88,7l-.37.21-.63.38,0,3.66a75.55,75.55,0,0,0-8.91.06c-8.71.58-19.73,2.42-27,2.42a10,10,0,0,1-5.65-1.76,9.84,9.84,0,0,1-3.64-4.67L20,56.69A14.19,14.19,0,0,1,20.87,44.9Z"/><path class="cls-4" d="M38.87,89.27A97.05,97.05,0,0,0,54.36,88a76,76,0,0,1,21.08-2.06v-1.8l29.25-.82a20.17,20.17,0,0,1,19.07-13.27c10.37.28,16,9.19,16.32,9.81l4.72-10.57,17-10,6.88,0,0-12.91L65.2,46.34l0,35.06-13.3.12a8.51,8.51,0,0,1-8.44-7.16l-3.52-21.6a14.88,14.88,0,0,1,0-4.71L47,8.66l-4.12-.09-.18.12a13.83,13.83,0,0,0-3.57,3.53l-.29.41L40,14.26,31.77,42.55a2.3,2.3,0,0,1-2.21,1.66h-9.1l-.2.36a14.86,14.86,0,0,0-.88,12.36L28.93,82.4a10.52,10.52,0,0,0,3.89,5A10.74,10.74,0,0,0,38.87,89.27Zm31.95-4c-1.68,0-3.35,0-5,.16-3.62.24-7.69.7-11.62,1.15a149.61,149.61,0,0,1-15.33,1.27,9.32,9.32,0,0,1-5.26-1.64,9.12,9.12,0,0,1-3.38-4.34L20.68,56.44a13.46,13.46,0,0,1,.61-10.85h8.27a3.7,3.7,0,0,0,3.54-2.65l8.47-29-1-1.38c.25-.32.51-.63.78-.92a12.85,12.85,0,0,1,2-1.72l2.05,0L38.53,47.82a16,16,0,0,0,0,5.16l3.52,21.6a9.89,9.89,0,0,0,9.81,8.32l14.69-.13,0-35,100.69.05,0,10.15-5.87,0L144,68.16l-5.43,4.11a31.38,31.38,0,0,0-8.88-4.9c-13.3-4.69-27,1.17-40.33,6.84-5.64,2.41-13.88,7-13.95,7l-.38.22-.63.38-.34.2,0,3.33C73,85.33,71.9,85.31,70.82,85.31Z"/><path class="cls-1" d="M123,73.53a16,16,0,1,0,16,16A16,16,0,0,0,123,73.53Zm0,25.68a9.69,9.69,0,1,1,9.69-9.69A9.69,9.69,0,0,1,123,99.21Z"/><path class="cls-1" d="M20.2,45.42l.19,0h9.38A3.37,3.37,0,0,0,33,43l8.37-28.72a1.54,1.54,0,0,0-1.47-2h-1l-.1.18L20,45.05ZM39.88,13a.83.83,0,0,1,.8,1.07L32.31,42.78a2.66,2.66,0,0,1-2.54,1.91H21L39.26,13Z"/><path class="cls-1" d="M168,58.78V69.13l-22-.23L140,78.79c-.57-.85-6.26-9-16.26-9.24-8.32-.23-16.18,5.07-19.56,13.32l-29.47.83v1.79H65.87q0-13.36,0-26.71Z"/><path class="cls-1" d="M65.17,86.18H75.44V84.37l29.25-.81.17-.42c3.25-7.93,10.83-13.14,18.9-12.9,9.58.26,15.11,8.05,15.71,8.94l.61.9,6.23-10.48,22.34.23V58.08H65.19Zm8.88-1.39H66.56l0-25.32H167.26v9l-21.74-.22L140,77.53c-1.87-2.38-7.45-8.44-16.18-8.68-8.48-.24-16.48,5.12-20,13.34L74.05,83Z"/><rect class="cls-5" x="62.09" y="50.22" width="7.56" height="1.33" transform="translate(131.73 101.78) rotate(180)"/><rect x="61.39" y="49.53" width="8.95" height="2.72"/><path class="cls-1" d="M46.69,10v0c-1.86,8.18-5.32,23.42-6.53,38.3a130.46,130.46,0,0,0-.36,14.24C40.15,74.87,42,78,42.94,79.47a25.28,25.28,0,0,0,6.56,7.08l22.57-1.06V10Zm-.59,34.5a2.68,2.68,0,0,1-1.57-.68,2.89,2.89,0,0,1-.77-2.55c.76-6.55,3.31-27.95,4-29.12a2.82,2.82,0,0,1,.83-.87,2.78,2.78,0,0,1,1.35-.4c1,0,10.07,0,21,.14h.34l.19,33.17Z"/><path class="cls-1" d="M22,65.74c11,0,13.28,13.46,13.28,21.76l-.13.13H31a2.78,2.78,0,0,1-2.75-2.24c-1-5.62-5.77-9-11.64-9h-15V74.77C3.35,71.68,9.54,65.74,22,65.74Z"/><path class="cls-1" d="M31,88.33h4.4l.54-.54V87.5C36,82.23,35,65,22,65,9.62,65,3,70.94,1,74.42l-.09.16v2.5H16.64c5.72,0,10,3.31,11,8.43A3.47,3.47,0,0,0,31,88.33Zm3.54-1.39H31A2.07,2.07,0,0,1,29,85.26c-1.07-5.81-5.91-9.56-12.33-9.56H2.29V75c1.94-3.24,8.16-8.52,19.7-8.52C33.26,66.43,34.5,81.44,34.57,86.94Z"/></g></g></svg>