<svg xmlns="http://www.w3.org/2000/svg" viewBox="0 0 143.67 156.99"><defs><style>.cls-1,.cls-2{fill:#f7f7f7;}.cls-1{fill-rule:evenodd;}</style></defs><g id="Layer_2" data-name="Layer 2"><g id="Layer_1-2" data-name="Layer 1"><polygon class="cls-1" points="104 27 104 27 7.34 92.66 0 81.33 96.33 15.66 87.66 3.33 109.65 1.67 131.33 0 121.99 19.66 112.33 39.33 104 27"/><polygon class="cls-1" points="117.99 51 117.99 51 117.99 156.99 143.66 156.99 143.66 51 117.99 51"/><polygon class="cls-1" points="81.34 71.67 81.34 71.67 81.34 156.99 106.67 156.99 106.67 71.67 81.34 71.67"/><polygon class="cls-1" points="44.66 95.35 44.66 95.35 69.99 95.35 69.99 156.99 44.66 156.99 44.66 95.35"/><rect class="cls-2" x="8" y="112.66" width="25.34" height="44.33"/></g></g></svg>