<?xml version="1.0" ?>

<!-- Uploaded to: SVG Repo, www.svgrepo.com, Generator: SVG Repo Mixer Tools -->
<svg width="800px" height="800px" viewBox="0 0 6.3500002 6.3500002" fill="#ffffff" id="svg1976" version="1.1" xmlns="http://www.w3.org/2000/svg" xmlns:cc="http://creativecommons.org/ns#" xmlns:dc="http://purl.org/dc/elements/1.1/" xmlns:inkscape="http://www.inkscape.org/namespaces/inkscape" xmlns:rdf="http://www.w3.org/1999/02/22-rdf-syntax-ns#" xmlns:sodipodi="http://sodipodi.sourceforge.net/DTD/sodipodi-0.dtd" xmlns:svg="http://www.w3.org/2000/svg">

<defs id="defs1970"/>

<g id="layer1" style="display:inline">

<path d="m 0.26485,5.8204456 a 0.2645835,0.2645835 0 0 0 -0.26563,0.26563 0.2645835,0.2645835 0 0 0 0.26563,0.26367 h 5.82031 a 0.2645835,0.2645835 0 0 0 0.26562,-0.26367 0.2645835,0.2645835 0 0 0 -0.26562,-0.26563 z" id="path726" fill="#ffffff"/>

<path d="m 1.16328,3.9688856 c -0.34722,0 -0.63476,0.28754 -0.63476,0.63477 v 1.48242 a 0.26460996,0.26460996 0 0 0 0.26562,0.26367 h 1.0586 a 0.26460996,0.26460996 0 0 0 0.26367,-0.26367 v -1.48242 c 0,-0.34723 -0.28755,-0.63477 -0.63477,-0.63477 z" id="path728" fill="#ffffff"/>

<path d="m 3.0168,3.0684956 c -0.34722,0 -0.63477,0.28753 -0.63477,0.63477 v 2.38281 a 0.26460996,0.26460996 0 0 0 0.26367,0.26367 h 1.0586 a 0.26460996,0.26460996 0 0 0 0.26367,-0.26367 v -2.38281 c 0,-0.34724 -0.28755,-0.63477 -0.63477,-0.63477 z" id="path730" fill="#ffffff"/>

<path d="m 4.86836,2.2755256 c -0.34722,0 -0.63477,0.28754 -0.63477,0.63477 v 3.17578 a 0.26460996,0.26460996 0 0 0 0.26368,0.26367 h 1.05859 a 0.26460996,0.26460996 0 0 0 0.26563,-0.26367 v -3.17578 c 0,-0.34723 -0.2895,-0.63477 -0.63672,-0.63477 z" id="path732" fill="#ffffff"/>

<path d="M 4.6205208,2.5237e-4 A 0.2645835,0.2645835 0 0 0 4.3564534,0.26380219 0.2645835,0.2645835 0 0 0 4.6205208,0.52941905 H 4.8938883 C 3.3974791,1.8159538 1.8306324,2.6151331 0.2161369,2.9142865 A 0.2645835,0.2645835 0 0 0 0.0052984,3.2227949 0.2645835,0.2645835 0 0 0 0.3117388,3.4357016 C 2.050091,3.1136013 3.722697,2.2498105 5.2923138,0.88753671 V 1.1991456 A 0.2645835,0.2645835 0 0 0 5.5558626,1.4647625 0.2645835,0.2645835 0 0 0 5.8214805,1.1991456 V 0.41986501 C 5.8215308,0.19150501 5.62816,2.0237e-4 5.3998008,2.5237e-4 Z" id="path734" fill="#ffffff"/>

</g>

</svg>
