<svg xmlns="http://www.w3.org/2000/svg" viewBox="0 0 234.14 238.8"><defs><style>.cls-1{fill:none;stroke:#fff;stroke-miterlimit:10;stroke-width:4px;}.cls-2,.cls-3{fill:#f7f7f7;}.cls-2{fill-rule:evenodd;}</style></defs><g id="Layer_2" data-name="Layer 2"><g id="Layer_1-2" data-name="Layer 1"><rect class="cls-1" x="2" y="2" width="230.14" height="234.8" rx="31.78"/><polygon class="cls-2" points="149.24 67.9 149.24 67.9 52.58 133.56 45.24 122.23 141.57 56.57 132.9 44.24 154.89 42.57 176.57 40.91 167.23 60.57 157.57 80.23 149.24 67.9"/><polygon class="cls-2" points="163.23 91.9 163.23 91.9 163.23 197.9 188.91 197.9 188.91 91.9 163.23 91.9"/><polygon class="cls-2" points="126.58 112.57 126.58 112.57 126.58 197.9 151.91 197.9 151.91 112.57 126.58 112.57"/><polygon class="cls-2" points="89.89 136.26 89.89 136.26 115.23 136.26 115.23 197.9 89.89 197.9 89.89 136.26"/><rect class="cls-3" x="53.24" y="153.57" width="25.34" height="44.33"/></g></g></svg>