<svg xmlns="http://www.w3.org/2000/svg" viewBox="0 0 146.92 158.11"><defs><style>.cls-1{fill:#fff;}</style></defs><g id="Layer_2" data-name="Layer 2"><g id="Layer_1-2" data-name="Layer 1"><path class="cls-1" d="M139.27,18.05a157.59,157.59,0,0,1-40.82-7.86A127.82,127.82,0,0,1,77.41,1a8.11,8.11,0,0,0-7.9,0,127.82,127.82,0,0,1-21,9.16A157.59,157.59,0,0,1,7.65,18.05,8.16,8.16,0,0,0,0,26.18V41.75c0,23,3.51,43.36,10.43,60.41a98.35,98.35,0,0,0,23.35,34.89,85.48,85.48,0,0,0,37.86,20.86,8.38,8.38,0,0,0,3.64,0,85.48,85.48,0,0,0,37.86-20.86,98.35,98.35,0,0,0,23.35-34.89c6.92-17,10.43-37.38,10.43-60.41V26.18A8.16,8.16,0,0,0,139.27,18.05ZM111.68,62.54,63.41,110.81a5,5,0,0,1-7.1,0L35.24,89.74a5,5,0,0,1,0-7.09L40.85,77A5,5,0,0,1,48,77L59.86,89,99,49.84a5,5,0,0,1,7.1,0l5.61,5.61A5,5,0,0,1,111.68,62.54Z"/></g></g></svg>