<svg xmlns="http://www.w3.org/2000/svg" viewBox="0 0 231.6 236.19"><defs><style>.cls-1{fill:none;stroke:#fff;stroke-miterlimit:10;stroke-width:5px;}.cls-2{fill:#fff;}</style></defs><g id="Layer_2" data-name="Layer 2"><g id="Layer_1-2" data-name="Layer 1"><rect class="cls-1" x="2.5" y="2.5" width="226.6" height="231.19" rx="31.78"/><path class="cls-2" d="M181.81,59.67A157.67,157.67,0,0,1,141,51.81a127.24,127.24,0,0,1-21-9.16,8.13,8.13,0,0,0-7.91,0,127.24,127.24,0,0,1-21,9.16,157.67,157.67,0,0,1-40.83,7.86,8.16,8.16,0,0,0-7.64,8.13V83.37c0,23,3.51,43.36,10.43,60.41a98.41,98.41,0,0,0,23.34,34.89,85.58,85.58,0,0,0,37.86,20.86,8.43,8.43,0,0,0,3.65,0,85.69,85.69,0,0,0,37.86-20.86A98.41,98.41,0,0,0,179,143.78c6.93-17,10.44-37.38,10.44-60.41V67.8A8.16,8.16,0,0,0,181.81,59.67Zm-27.6,44.49-48.27,48.27a5,5,0,0,1-7.09,0L77.78,131.36a5,5,0,0,1,0-7.09l5.61-5.61a5,5,0,0,1,7.09,0l11.91,11.91,39.12-39.11a5,5,0,0,1,7.09,0l5.61,5.6A5,5,0,0,1,154.21,104.16Z"/></g></g></svg>