<svg xmlns="http://www.w3.org/2000/svg" viewBox="0 0 230.14 237"><defs><style>.cls-1{fill:none;stroke:#fff;stroke-miterlimit:10;stroke-width:5px;}.cls-2{fill:#f7f7f7;}.cls-2,.cls-3,.cls-4{fill-rule:evenodd;}.cls-3{fill:#e8e8e8;}.cls-4{fill:#d1d1cb;}</style></defs><g id="Layer_2" data-name="Layer 2"><g id="Layer_1-2" data-name="Layer 1"><rect class="cls-1" x="2.5" y="2.5" width="225.14" height="232" rx="31.78"/><path class="cls-2" d="M142.63,47.83h0a81,81,0,0,0-30-6.07,80.93,80.93,0,0,0-30,6.07A92.4,92.4,0,0,0,57.9,64l54.7,54.92L167,64a85.86,85.86,0,0,0-24.33-16.16Z"/><path class="cls-3" d="M110.6,122.28h0l-20,75.12a78.87,78.87,0,0,1-56.38-76.13,83,83,0,0,1,5.67-30.33,80.11,80.11,0,0,1,16-24.58l54.7,55.24-.33.68Z"/><path class="cls-4" d="M168,177.18h0c14-13.81,22.34-33,23-54.56H113.6l-20,75.45c3,.68,6,1.68,8.68,1.68a51.23,51.23,0,0,0,10.34.68A77.26,77.26,0,0,0,168,177.18Z"/><path class="cls-2" d="M185.31,90.94A88.75,88.75,0,0,1,191,119.59H116.26l53.05-53.23a87,87,0,0,1,16,24.58Z"/></g></g></svg>