<svg xmlns="http://www.w3.org/2000/svg" viewBox="0 0 156.76 158.67"><defs><style>.cls-1{fill:#f7f7f7;}.cls-1,.cls-2,.cls-3{fill-rule:evenodd;}.cls-2{fill:#e8e8e8;}.cls-3{fill:#d1d1cb;}</style></defs><g id="Layer_2" data-name="Layer 2"><g id="Layer_1-2" data-name="Layer 1"><path class="cls-1" d="M108.4,6.07h0A81.13,81.13,0,0,0,78.38,0a81.14,81.14,0,0,0-30,6.07A92.19,92.19,0,0,0,23.67,22.24L78.38,77.16l54.36-54.92A85.59,85.59,0,0,0,108.4,6.07Z"/><path class="cls-2" d="M76.38,80.52h0l-20,75.12A78.86,78.86,0,0,1,0,79.51,83,83,0,0,1,5.67,49.19a80,80,0,0,1,16-24.59L76.38,79.85l-.34.67Z"/><path class="cls-3" d="M133.75,135.43h0c14-13.81,22.34-33,23-54.57H79.38l-20,75.46c3,.67,6,1.68,8.68,1.68a52,52,0,0,0,10.34.67,77.29,77.29,0,0,0,55.37-23.24Z"/><path class="cls-1" d="M151.09,49.19a89.22,89.22,0,0,1,5.67,28.64H82l53-53.23a86.77,86.77,0,0,1,16,24.59Z"/></g></g></svg>