<svg xmlns="http://www.w3.org/2000/svg" viewBox="0 0 133.33 101.71"><defs><style>.cls-1{fill:#f9f9f9;}</style></defs><g id="Layer_2" data-name="Layer 2"><g id="Layer_1-2" data-name="Layer 1"><rect class="cls-1" x="64.45" y="29.88" width="2.67" height="11.17" rx="1.15" transform="translate(-8.86 31.83) rotate(-25.54)"/><rect class="cls-1" x="58.7" y="32.63" width="2.67" height="11.17" transform="translate(68.64 -32.43) rotate(64.46)"/><path class="cls-1" d="M43.28,37.21h7.29a11,11,0,0,1,11,11v8.44a0,0,0,0,1,0,0H43.28a0,0,0,0,1,0,0V37.21A0,0,0,0,1,43.28,37.21Z"/><path class="cls-1" d="M78.21,56,59.28,57.1v-.59A19.81,19.81,0,0,0,39.47,36.7H8a5.86,5.86,0,0,0-4.34,1.9,6.76,6.76,0,0,0-1.56,4.47C1.89,47.2,2,59,2.62,74.77l2.14.15a21.72,21.72,0,0,1,41-.72l13.48-.48v0l10.68,0a21.51,21.51,0,0,1,3.32-12.39A20.8,20.8,0,0,1,78.21,56Z"/><path class="cls-1" d="M123.69,39.55l-41.24,0c-5.37,0-9.73,3.72-9.73,8.31Q69,60.77,65.26,73.7l6.07.11A28.38,28.38,0,0,1,77.51,56.6c9.24-11.29,23.88-10,25.35-9.84a30.07,30.07,0,0,1,17.77,8.48,30.38,30.38,0,0,1,8.71,19.05l3.47-.07q.19-6.93.33-14,.18-10.49.19-20.69Z"/><path class="cls-1" d="M125.38,80.83A26.53,26.53,0,0,0,126,75a25.86,25.86,0,0,0-.17-3l-2.16.24a23.66,23.66,0,0,0-1.2-5.26l2.06-.71A26.7,26.7,0,0,0,122,60.9l-1.84,1.15a25,25,0,0,0-3.34-4.25l1.55-1.52a26.69,26.69,0,0,0-4.55-3.72l-1.18,1.82A25.32,25.32,0,0,0,107.83,52l.75-2a26.66,26.66,0,0,0-5.71-1.42l-.29,2.15a25.36,25.36,0,0,0-3.29-.22c-.71,0-1.41,0-2.11.1L97,48.36a26.93,26.93,0,0,0-5.77,1.14l.66,2.07A24.59,24.59,0,0,0,87,53.76l-1.09-1.88a27,27,0,0,0-4.73,3.5L82.61,57a25.47,25.47,0,0,0-3.54,4.08l-1.78-1.23A26.41,26.41,0,0,0,74.5,65l2,.81A23.83,23.83,0,0,0,75.06,71l-2.15-.35A27.2,27.2,0,0,0,72.56,75c0,.52,0,1,0,1.54l2.16-.13a25.27,25.27,0,0,0,.9,5.33l-2.09.59a26.91,26.91,0,0,0,2.23,5.45l1.9-1a24.83,24.83,0,0,0,3.09,4.42l-1.63,1.43a26.37,26.37,0,0,0,4.33,4l1.28-1.75a25,25,0,0,0,4.68,2.7l-.87,2a26.35,26.35,0,0,0,5.62,1.75l.41-2.13a24.73,24.73,0,0,0,4.67.45l.71,0,.06,2.17a26.41,26.41,0,0,0,5.82-.8l-.53-2.1a24.34,24.34,0,0,0,5.05-1.91l1,1.94a27,27,0,0,0,4.91-3.22L114.92,94a24.65,24.65,0,0,0,3.76-3.88l1.72,1.33a27.33,27.33,0,0,0,3.08-5l-2-.93a23.87,23.87,0,0,0,1.74-5.11ZM99.29,85.55A10.56,10.56,0,1,1,109.85,75,10.55,10.55,0,0,1,99.29,85.55Z"/><path class="cls-1" d="M44.1,86.45a19.67,19.67,0,0,0,.46-4.27A20.69,20.69,0,0,0,44.44,80l-1.58.18A17.53,17.53,0,0,0,42,76.28l1.5-.52a19.19,19.19,0,0,0-1.85-3.88l-1.35.84a17.52,17.52,0,0,0-2.44-3.11L39,68.5a20.19,20.19,0,0,0-3.33-2.72l-.86,1.33a17.93,17.93,0,0,0-3.53-1.77l.55-1.49a19.89,19.89,0,0,0-4.17-1l-.21,1.58A17.42,17.42,0,0,0,25,64.22c-.52,0-1,0-1.54.07l-.13-1.58a19.48,19.48,0,0,0-4.22.84l.48,1.51A17.71,17.71,0,0,0,16,66.66l-.8-1.37a19.6,19.6,0,0,0-3.45,2.55L12.83,69a17.54,17.54,0,0,0-2.59,3l-1.3-.9a18.9,18.9,0,0,0-2,3.78l1.47.6a17.24,17.24,0,0,0-1.06,3.8L5.74,79a19.74,19.74,0,0,0-.26,3.17c0,.38,0,.75,0,1.12l1.58-.09a17.3,17.3,0,0,0,.66,3.89l-1.53.44a19.14,19.14,0,0,0,1.63,4l1.39-.76A17.67,17.67,0,0,0,11.51,94L10.31,95a19.36,19.36,0,0,0,3.17,2.9l.93-1.27a18.74,18.74,0,0,0,3.43,2l-.64,1.45a19.69,19.69,0,0,0,4.1,1.28l.31-1.56a18.17,18.17,0,0,0,3.41.33l.52,0,0,1.59a19.61,19.61,0,0,0,4.26-.59l-.39-1.53a18,18,0,0,0,3.69-1.39l.72,1.41a19.89,19.89,0,0,0,3.6-2.35l-1-1.22A18,18,0,0,0,39.2,93.2l1.25,1a20,20,0,0,0,2.25-3.66l-1.43-.68a18.13,18.13,0,0,0,1.28-3.74ZM25,89.64a7.46,7.46,0,1,1,7.47-7.46A7.46,7.46,0,0,1,25,89.64Z"/><rect class="cls-1" x="55.81" y="56.07" width="17.96" height="2.51" rx="1.08"/><ellipse class="cls-1" cx="2.74" cy="46.8" rx="2.74" ry="3.47"/><path class="cls-1" d="M66.79,0h65.38a0,0,0,0,1,0,0V10.2a0,0,0,0,1,0,0H66.79a3.9,3.9,0,0,1-3.9-3.9V3.9A3.9,3.9,0,0,1,66.79,0Z"/><rect class="cls-1" x="121.97" width="11.36" height="40.59"/></g></g></svg>